<svg id="Capa_1" enable-background="new 0 0 512 512" height="512" viewBox="0 0 512 512" width="512" xmlns="http://www.w3.org/2000/svg"><circle cx="256" cy="256" fill="#f1f1f1" r="256"/><path d="m472.328 285.799-52.632 30.386-226.742 130.915-58.922 34.022c-1.964-1.066-3.918-2.163-5.851-3.281-23.134-13.343-43.98-30.208-61.816-49.873v-376.56c0-11.995 7.481-21.4 17.283-25.234 7.21-2.821 15.673-2.633 23.333 1.787l116.82 67.448 195.897 113.11 52.632 30.386c18.065 10.417 18.065 36.466-.002 46.894z" fill="#0a63a4"/><path d="m419.697 115.889v200.296l-285.665 164.937c-1.964-1.066-3.918-2.163-5.851-3.281v-382.432h271.036c11.306 0 20.48 9.174 20.48 20.48z" fill="#30d5fb"/><path d="m192.954 95.409v351.691l-58.922 34.022c-1.964-1.066-3.918-2.163-5.851-3.281v-382.432z" fill="#0099f3"/><path d="m373.373 194.002-32.391-18.808-32.392 18.808v-98.593h64.783z" fill="#f7f7f7"/></svg>